<svg width="34" height="34" viewBox="0 0 34 34" fill="none" xmlns="http://www.w3.org/2000/svg">
<path d="M12.5376 19.9961C12.7069 19.996 12.8744 20.03 13.0308 20.0947C13.1873 20.1595 13.33 20.2542 13.4497 20.374L13.6968 20.6221L13.6607 20.6572C13.6853 20.7011 13.7077 20.7463 13.7271 20.793C13.7919 20.9492 13.8257 21.117 13.8257 21.2861C13.8257 21.4553 13.7919 21.623 13.7271 21.7793C13.6623 21.9356 13.5675 22.0777 13.4478 22.1973L12.1978 23.4473C12.0782 23.5668 11.936 23.6619 11.7798 23.7266C11.6238 23.7911 11.4565 23.8242 11.2876 23.8242C11.1186 23.8242 10.9506 23.7912 10.7945 23.7266C10.6383 23.6619 10.4961 23.5668 10.3765 23.4473C10.2569 23.3277 10.1619 23.1855 10.0972 23.0293C10.0325 22.873 9.99954 22.7053 9.99954 22.5361C9.99957 22.3671 10.0325 22.1992 10.0972 22.043C10.1619 21.8869 10.2571 21.7454 10.3765 21.626L11.6255 20.376C11.7449 20.2559 11.8872 20.1609 12.0435 20.0957C12.1999 20.0306 12.3682 19.9963 12.5376 19.9961Z" fill="white"/>
<path fill-rule="evenodd" clip-rule="evenodd" d="M22.5376 2.51439e-06C24.0847 0.00464579 25.6146 0.326724 27.0318 0.947268C28.4489 1.56785 29.7233 2.47368 30.7759 3.60742C31.8284 4.74114 32.6371 6.07894 33.1509 7.53809C33.6647 8.99741 33.8723 10.5476 33.7622 12.0908C33.6521 13.6338 33.2259 15.1374 32.5103 16.5088C31.7946 17.8803 30.8049 19.0906 29.6021 20.0635C28.3992 21.0363 27.0089 21.7519 25.5181 22.165C24.074 22.5651 22.5652 22.6695 21.0796 22.4805L6.27493 33.3379C5.78707 33.6983 5.18539 33.8715 4.5806 33.8252C3.97601 33.7788 3.40825 33.5162 2.98099 33.0859L0.746614 30.8516C0.316484 30.4245 0.0535961 29.8564 0.00735617 29.252C-0.0389455 28.6467 0.134458 28.0446 0.495637 27.5566L11.3482 12.7559C11.1425 11.2003 11.2638 9.61835 11.7046 8.11133C12.1592 6.55767 12.9429 5.11937 14.0025 3.89551C15.062 2.67178 16.3728 1.69081 17.8452 1.01856C19.3178 0.346275 20.9189 -0.00107827 22.5376 2.51439e-06ZM2.58841 29.0459L4.77591 31.2334L17.9331 21.585C16.6798 21.0219 15.5372 20.2356 14.563 19.2617C13.5885 18.2874 12.8012 17.1444 12.2378 15.8906L2.58841 29.0459ZM15.5376 6.1084C14.4262 7.60242 13.823 9.41815 13.8238 11.2871C13.8253 12.9324 14.2924 14.5438 15.1714 15.9346C16.0505 17.3253 17.306 18.4383 18.7915 19.1455C20.2771 19.8527 21.9331 20.1252 23.5669 19.9307C25.0715 19.7515 26.4996 19.1813 27.7144 18.2832L15.5376 6.1084ZM26.2867 3.42188C24.8005 2.71428 23.1437 2.443 21.5093 2.63867C20.004 2.81895 18.5742 3.38873 17.3599 4.28906L29.5347 16.4658C30.647 14.9722 31.2503 13.1563 31.2486 11.2871L31.2437 10.9785C31.1902 9.44001 30.7292 7.94079 29.9058 6.63574C29.0275 5.24391 27.7726 4.12945 26.2867 3.42188Z" fill="white"/>
</svg>
