<svg width="133" height="120" viewBox="0 0 133 120" fill="none" xmlns="http://www.w3.org/2000/svg">
<path d="M46.5033 6.64258L6.65137 33.2105V112.914L46.5033 86.3463L86.3551 112.914L126.207 86.3463V6.64258L86.3551 33.2105L46.5033 6.64258Z" fill="#FF6138"/>
<path fill-rule="evenodd" clip-rule="evenodd" d="M129.333 0.785678C130.393 1.35324 131.279 2.19794 131.896 3.22967C132.514 4.2614 132.84 5.44144 132.84 6.6439V86.3477C132.84 87.4409 132.57 88.5172 132.054 89.4812C131.539 90.4452 130.793 91.2671 129.884 91.8738L90.0321 118.442C88.9406 119.17 87.6579 119.559 86.3457 119.559C85.0336 119.559 83.7509 119.17 82.6594 118.442L46.4939 94.3313L10.3283 118.442C9.32799 119.109 8.1653 119.492 6.96423 119.551C5.76316 119.609 4.56879 119.34 3.50853 118.773C2.44827 118.206 1.5619 117.361 0.943996 116.33C0.326088 115.298 -0.00017989 114.118 7.44086e-08 112.916V33.2118C-0.000163521 32.1186 0.269518 31.0422 0.785116 30.0783C1.30071 29.1143 2.04629 28.2924 2.95568 27.6857L42.8076 1.11778C43.899 0.389556 45.1818 0.000929422 46.4939 0.000929422C47.806 0.000929422 49.0887 0.389556 50.1802 1.11778L86.3457 25.2282L122.511 1.11778C123.512 0.449971 124.675 0.0663488 125.876 0.00785913C127.077 -0.0506305 128.272 0.218208 129.333 0.785678ZM13.284 36.7653V100.502L42.8076 80.8215C43.899 80.0933 45.1818 79.7047 46.4939 79.7047C47.806 79.7047 49.0887 80.0933 50.1802 80.8215L86.3457 104.932L119.556 82.7942V19.0578L90.0321 38.7379C88.9406 39.4662 87.6579 39.8548 86.3457 39.8548C85.0336 39.8548 83.7509 39.4662 82.6594 38.7379L46.4939 14.6276L13.284 36.7653Z" fill="#FF6138"/>
<path fill-rule="evenodd" clip-rule="evenodd" d="M129.335 0.785678C130.395 1.35324 131.281 2.19794 131.898 3.22967C132.516 4.2614 132.842 5.44144 132.842 6.6439V86.3477C132.842 87.4409 132.572 88.5172 132.056 89.4812C131.541 90.4452 130.795 91.2671 129.886 91.8738L90.034 118.442C88.9425 119.17 87.6598 119.559 86.3477 119.559C85.0356 119.559 83.7529 119.17 82.6614 118.442L46.4958 94.3313L10.3302 118.442C9.32995 119.109 8.16725 119.492 6.96618 119.551C5.76511 119.609 4.57074 119.34 3.51048 118.773C2.45022 118.206 1.56386 117.361 0.945949 116.33C0.328041 115.298 0.00177324 114.118 0.0019532 112.916V33.2118C0.0017896 32.1186 0.271471 31.0422 0.787069 30.0783C1.30267 29.1143 2.04824 28.2924 2.95763 27.6857L42.8095 1.11778C43.901 0.389556 45.1837 0.000929422 46.4958 0.000929422C47.8079 0.000929422 49.0906 0.389556 50.1821 1.11778L86.3477 25.2282L122.513 1.11778C123.514 0.449971 124.677 0.0663488 125.878 0.00785913C127.079 -0.0506305 128.274 0.218208 129.335 0.785678ZM13.2859 36.7653V100.502L42.8095 80.8215C43.901 80.0933 45.1837 79.7047 46.4958 79.7047C47.8079 79.7047 49.0906 80.0933 50.1821 80.8215L86.3477 104.932L119.558 82.7942V19.0578L90.034 38.7379C88.9425 39.4662 87.6598 39.8548 86.3477 39.8548C85.0356 39.8548 83.7529 39.4662 82.6614 38.7379L46.4958 14.6276L13.2859 36.7653Z" fill="#FF6138"/>
<path d="M46.5052 6.64355L6.65332 33.2115V112.915L46.5052 86.3473L86.3571 112.915L126.209 86.3473V6.64355L86.3571 33.2115L46.5052 6.64355Z" fill="#FF6138"/>
<path fill-rule="evenodd" clip-rule="evenodd" d="M129.335 0.785678C130.395 1.35324 131.281 2.19794 131.898 3.22967C132.516 4.2614 132.842 5.44144 132.842 6.6439V86.3477C132.842 87.4409 132.572 88.5172 132.056 89.4812C131.541 90.4452 130.795 91.2671 129.886 91.8738L90.034 118.442C88.9425 119.17 87.6598 119.559 86.3477 119.559C85.0356 119.559 83.7529 119.17 82.6614 118.442L46.4958 94.3313L10.3302 118.442C9.32995 119.109 8.16725 119.492 6.96618 119.551C5.76511 119.609 4.57074 119.34 3.51048 118.773C2.45022 118.206 1.56386 117.361 0.945949 116.33C0.328041 115.298 0.00177324 114.118 0.0019532 112.916V33.2118C0.0017896 32.1186 0.271471 31.0422 0.787069 30.0783C1.30267 29.1143 2.04824 28.2924 2.95763 27.6857L42.8095 1.11778C43.901 0.389556 45.1837 0.000929422 46.4958 0.000929422C47.8079 0.000929422 49.0906 0.389556 50.1821 1.11778L86.3477 25.2282L122.513 1.11778C123.514 0.449971 124.677 0.0663488 125.878 0.00785913C127.079 -0.0506305 128.274 0.218208 129.335 0.785678ZM13.2859 36.7653V100.502L42.8095 80.8215C43.901 80.0933 45.1837 79.7047 46.4958 79.7047C47.8079 79.7047 49.0906 80.0933 50.1821 80.8215L86.3477 104.932L119.558 82.7942V19.0578L90.034 38.7379C88.9425 39.4662 87.6598 39.8548 86.3477 39.8548C85.0356 39.8548 83.7529 39.4662 82.6614 38.7379L46.4958 14.6276L13.2859 36.7653Z" fill="#FF6138"/>
<path fill-rule="evenodd" clip-rule="evenodd" d="M129.337 0.786654C130.397 1.35422 131.283 2.19892 131.9 3.23065C132.518 4.26237 132.844 5.44241 132.844 6.64488V86.3486C132.844 87.4419 132.574 88.5182 132.058 89.4822C131.543 90.4462 130.797 91.268 129.888 91.8748L90.036 118.443C88.9445 119.171 87.6618 119.56 86.3497 119.56C85.0375 119.56 83.7548 119.171 82.6634 118.443L46.4978 94.3323L10.3322 118.443C9.3319 119.11 8.1692 119.493 6.96813 119.552C5.76707 119.61 4.57269 119.341 3.51243 118.774C2.45217 118.207 1.56581 117.362 0.947902 116.331C0.329994 115.299 0.00372636 114.119 0.00390632 112.917V33.2128C0.00374273 32.1196 0.273424 31.0432 0.789022 30.0792C1.30462 29.1152 2.05019 28.2934 2.95959 27.6867L42.8115 1.11875C43.9029 0.390533 45.1857 0.00190598 46.4978 0.00190598C47.8099 0.00190598 49.0926 0.390533 50.1841 1.11875L86.3497 25.2291L122.515 1.11875C123.516 0.450947 124.679 0.0673253 125.88 0.00883569C127.081 -0.0496539 128.276 0.219185 129.337 0.786654ZM13.2879 36.7663V100.503L42.8115 80.8225C43.9029 80.0943 45.1857 79.7057 46.4978 79.7057C47.8099 79.7057 49.0926 80.0943 50.1841 80.8225L86.3497 104.933L119.56 82.7952V19.0587L90.036 38.7389C88.9445 39.4671 87.6618 39.8558 86.3497 39.8558C85.0375 39.8558 83.7548 39.4671 82.6634 38.7389L46.4978 14.6285L13.2879 36.7663Z" fill="#FF6138"/>
<path d="M88.879 57.1107L74.4434 51.2238V35.1855L88.879 41.0725V57.1107Z" fill="white"/>
<rect x="43.9727" y="50.8955" width="33.2521" height="33.4821" rx="16.6261" fill="white"/>
<path d="M74.4434 35.1855L77.2345 38.129V68.7567H74.4434V35.1855Z" fill="white"/>
</svg>
